#!OML:ASF X:\für Bonn\!DataBase\2005_08_10_Bjorn_Final\c3d\bjorn.ASF
:FULLY-SPECIFIED
:DEGREES
817
root 0.174478 1.43076 19.8539 -274.472 -0.351393 -535.015
lowerback 3.4267 -0.238761 2.22761
upperback 4.1593 -0.428293 -0.536963
thorax 2.33648 -0.217345 -1.7972
lowerneck -18.7026 -3.77083 0.519645
upperneck 10.5532 -6.04643 4.37398
head 6.37946 -2.61573 0.661695
rclavicle 1.35174e-014 1.03368e-014
rhumerus -58.982 48.6742 -108.457
rradius 105.91
rwrist -32.3905
rhand 6.60375 6.80987
rfingers 7.12502
rthumb 31.8984 -20.4164
lclavicle 1.35174e-014 1.03368e-014
lhumerus -61.6414 -59.764 109.134
lradius 107.14
lwrist 38.2938
lhand 9.33956 -369.748
lfingers 7.12502
lthumb 34.4997 16.9237
rfemur -1.26983 -18.7056 8.41849
rtibia 25.3383
rfoot 5.51437 -5.49539
rtoes 17.4826
lfemur -4.46757 3.06984 -10.9532
ltibia 27.2887
lfoot 3.60763 7.07822
ltoes 12.7933
818
root 0.168869 1.43088 19.853 -274.463 -0.353255 -534.99
lowerback 3.41435 -0.24803 2.27374
upperback 4.14937 -0.439056 -0.551403
thorax 2.33239 -0.221011 -1.8378
lowerneck -18.6875 -3.77017 0.553535
upperneck 10.5595 -6.05316 4.36295
head 6.37785 -2.61892 0.652226
rclavicle 1.59028e-014 -6.01324e-015
rhumerus -59.0012 48.6618 -108.462
rradius 105.926
rwrist -32.3851
rhand 6.65971 6.85911
rfingers 7.12502
rthumb 31.9517 -20.3565
lclavicle 1.59028e-014 -6.01324e-015
lhumerus -61.5954 -59.7856 109.086
lradius 107.1
lwrist 38.2928
lhand 9.42775 -369.74
lfingers 7.12502
lthumb 34.5834 16.9124
rfemur -1.26035 -18.8546 8.36381
rtibia 25.3222
rfoot 5.61419 -5.43187
rtoes 17.3995
lfemur -4.49458 3.00771 -10.9816
ltibia 27.3275
lfoot 3.48426 7.18854
ltoes 12.641
819
root 0.162968 1.43022 19.8511 -274.464 -0.352537 -534.971
lowerback 3.3971 -0.263055 2.33016
upperback 4.16081 -0.458735 -0.57574
thorax 2.35265 -0.228791 -1.89444
lowerneck -18.7225 -3.75456 0.636504
upperneck 10.586 -6.04811 4.31551
head 6.38792 -2.61603 0.623635
rclavicle -1.19271e-014 3.13086e-015
rhumerus -58.9973 48.6978 -108.501
rradius 105.923
rwrist -32.374
rhand 6.60835 6.89842
rfingers 7.12502
rthumb 31.9028 -20.327
lclavicle -1.19271e-014 3.13086e-015
lhumerus -61.4898 -59.7876 108.947
lradius 107.1
lwrist 38.2238
lhand 9.56583 -369.674
lfingers 7.12502
lthumb 34.7144 16.9487
rfemur -1.24318 -18.9278 8.32565
rtibia 25.3081
rfoot 5.65461 -5.43307
rtoes 17.4855
lfemur -4.50759 2.93655 -11.0076
ltibia 27.3652
lfoot 3.36121 7.28579
ltoes 12.6422
820
root 0.158624 1.4305 19.849 -274.46 -0.387931 -534.971
lowerback 3.38458 -0.265214 2.31729
upperback 4.16281 -0.461852 -0.585952
thorax 2.36154 -0.230356 -1.89779
lowerneck -18.7665 -3.74529 0.683673
upperneck 10.6404 -6.04271 4.26656
head 6.40943 -2.61321 0.599872
rclavicle 1.59028e-015 2.73329e-015
rhumerus -59.0334 48.7364 -108.513
rradius 105.952
rwrist -32.3307
rhand 6.57873 6.98489
rfingers 7.12502
rthumb 31.8746 -20.2461
lclavicle 1.59028e-015 2.73329e-015
lhumerus -61.4057 -59.7721 108.859
lradius 107.09
lwrist 38.1859
lhand 9.68772 -369.607
lfingers 7.12502
lthumb 34.8301 16.9887
rfemur -1.23763 -19.0409 8.24152
rtibia 25.2953
rfoot 5.73925 -5.38407
rtoes 17.4081
lfemur -4.51215 2.82682 -11.079
ltibia 27.3975
lfoot 3.15874 7.47469
ltoes 12.7357
821
root 0.154353 1.43034 19.8479 -274.461 -0.38789 -534.962
lowerback 3.36551 -0.268977 2.36219
upperback 4.17488 -0.466842 -0.606595
thorax 2.38423 -0.231113 -1.9444
lowerneck -18.7818 -3.73045 0.752561
upperneck 10.6487 -6.03632 4.23368
head 6.41137 -2.60982 0.578813
rclavicle -1.19271e-014 2.6339e-015
rhumerus -59.0092 48.7469 -108.527
rradius 105.961
rwrist -32.2908
rhand 6.54399 7.02642
rfingers 7.12502
rthumb 31.8415 -20.2112
lclavicle -1.19271e-014 2.6339e-015
lhumerus -61.295 -59.7884 108.724
lradius 107.112
lwrist 38.1719
lhand 9.81935 -369.484
lfingers 7.12502
lthumb 34.955 17.0823
rfemur -1.22556 -19.1602 8.19748
rtibia 25.2868
rfoot 5.81667 -5.31424
rtoes 17.3793
lfemur -4.52048 2.8109 -11.091
ltibia 27.4242
lfoot 3.07015 7.57078
ltoes 12.6854
822
root 0.150693 1.42958 19.8465 -274.453 -0.387481 -534.946
lowerback 3.36345 -0.276644 2.38762
upperback 4.16455 -0.475848 -0.613058
thorax 2.3741 -0.234733 -1.96514
lowerneck -18.7878 -3.72476 0.801665
upperneck 10.673 -6.03038 4.166
head 6.41619 -2.60943 0.549801
rclavicle 5.56597e-015 -1.2921e-015
rhumerus -59.0597 48.7392 -108.571
rradius 105.987
rwrist -32.2349
rhand 6.52104 7.09637
rfingers 7.12502
rthumb 31.8197 -20.1456
lclavicle 5.56597e-015 -1.2921e-015
lhumerus -61.2307 -59.7702 108.655
lradius 107.119
lwrist 38.132
lhand 9.95893 -369.407
lfingers 7.12502
lthumb 35.0874 17.1285
rfemur -1.23036 -19.1811 8.18384
rtibia 25.2823
rfoot 5.81093 -5.3222
rtoes 17.3241
lfemur -4.53452 2.73253 -11.1122
ltibia 27.4458
lfoot 2.9357 7.68551
ltoes 12.6317
823
root 0.148103 1.42968 19.8463 -274.443 -0.403522 -534.926
lowerback 3.33275 -0.285803 2.37087
upperback 4.17769 -0.489574 -0.609552
thorax 2.40427 -0.241742 -1.95228
lowerneck -18.8214 -3.71074 0.833311
upperneck 10.6918 -6.0135 4.1248
head 6.42503 -2.60194 0.532795
rclavicle -1.59028e-015 3.27995e-015
rhumerus -59.0498 48.7819 -108.549
rradius 106.021
rwrist -32.2299
rhand 6.49527 7.12206
rfingers 7.12502
rthumb 31.7951 -20.1248
lclavicle -1.59028e-015 3.27995e-015
lhumerus -61.0817 -59.7644 108.529
lradius 107.117
lwrist 38.1021
lhand 10.0416 -369.316
lfingers 7.12502
lthumb 35.1658 17.2011
rfemur -1.22921 -19.2433 8.14377
rtibia 25.2793
rfoot 5.82727 -5.31449
rtoes 17.2568
lfemur -4.55454 2.75096 -11.1322
ltibia 27.4615
lfoot 2.86953 7.76682
ltoes 12.6227
824
root 0.145287 1.42974 19.8448 -274.435 -0.404776 -534.918
lowerback 3.31076 -0.29229 2.3854
upperback 4.1812 -0.498314 -0.618429
thorax 2.41967 -0.245285 -1.96966
lowerneck -18.8725 -3.69257 0.890585
upperneck 10.7477 -5.99988 4.07982
head 6.44799 -2.59433 0.50944
rclavicle -1.59028e-014 -1.88845e-015
rhumerus -59.0466 48.8081 -108.571
rradius 106.04
rwrist -32.1991
rhand 6.43579 7.16617
rfingers 7.12502
rthumb 31.7385 -20.0919
lclavicle -1.59028e-014 -1.88845e-015
lhumerus -60.9901 -59.761 108.411
lradius 107.146
lwrist 38.0591
lhand 10.1704 -369.235
lfingers 7.12502
lthumb 35.2879 17.2529
rfemur -1.23534 -19.3196 8.11655
rtibia 25.2808
rfoot 5.87226 -5.28421
rtoes 17.2979
lfemur -4.56375 2.70739 -11.1476
ltibia 27.4699
lfoot 2.75432 7.88571
ltoes 12.659
825
root 0.143626 1.42906 19.8438 -274.444 -0.418662 -534.894
lowerback 3.31822 -0.293223 2.39934
upperback 4.1843 -0.498849 -0.650993
thorax 2.41841 -0.244747 -2.01098
lowerneck -18.881 -3.67998 0.973329
upperneck 10.7603 -5.9988 4.03705
head 6.44957 -2.59387 0.482494
rclavicle 7.15625e-015 -5.91384e-015
rhumerus -59.0449 48.788 -108.624
rradius 106.064
rwrist -32.1219
rhand 6.38729 7.1866
rfingers 7.12502
rthumb 31.6923 -20.0806
lclavicle 7.15625e-015 -5.91384e-015
lhumerus -60.9094 -59.7912 108.292
lradius 107.183
lwrist 38.0345
lhand 10.2725 -369.059
lfingers 7.12502
lthumb 35.3848 17.4063
rfemur -1.22463 -19.3612 8.08265
rtibia 25.2851
rfoot 5.86321 -5.27948
rtoes 17.2974
lfemur -4.56336 2.77453 -11.1511
ltibia 27.4739
lfoot 2.73209 7.9057
ltoes 12.6378
826
root 0.142132 1.4287 19.8437 -274.444 -0.41536 -534.875
lowerback 3.2999 -0.299551 2.40105
upperback 4.20332 -0.508833 -0.647675
thorax 2.44788 -0.249588 -2.00869
lowerneck -18.9424 -3.66498 1.0148
upperneck 10.8053 -5.98065 3.97229
head 6.47033 -2.58604 0.455807
rclavicle -3.18055e-015 -5.96354e-016
rhumerus -59.0249 48.8216 -108.598
rradius 106.089
rwrist -32.0763
rhand 6.33558 7.2563
rfingers 7.12502
rthumb 31.643 -20.0206
lclavicle -3.18055e-015 -5.96354e-016
lhumerus -60.7783 -59.7866 108.163
lradius 107.219
lwrist 38.032
lhand 10.4102 -368.97
lfingers 7.12502
lthumb 35.5153 17.4644
rfemur -1.22305 -19.3795 8.07882
rtibia 25.2886
rfoot 5.83428 -5.28924
rtoes 17.1961
lfemur -4.56765 2.77647 -11.1456
ltibia 27.4761
lfoot 2.69732 7.9745
ltoes 12.5738
